{
	"asset":{
		"generator":"Khronos glTF Blender I/O v4.3.47",
		"version":"2.0"
	},
	"scene":0,
	"scenes":[
		{
			"name":"Scene",
			"nodes":[
				0
			]
		}
	],
	"nodes":[
		{
			"mesh":0,
			"name":"vcckafl_LOD0_TIER2_000",
			"rotation":[
				0.70710688829422,
				0,
				0,
				0.7071066498756409
			]
		}
	],
	"materials":[
		{
			"doubleSided":true,
			"name":"MI_vcckafl",
			"normalTexture":{
				"index":0
			},
			"occlusionTexture":{
				"index":1
			},
			"pbrMetallicRoughness":{
				"baseColorTexture":{
					"index":2
				},
				"metallicRoughnessTexture":{
					"index":1
				}
			}
		}
	],
	"meshes":[
		{
			"name":"S_vcckafl_tier_2",
			"primitives":[
				{
					"attributes":{
						"POSITION":0,
						"NORMAL":1,
						"TEXCOORD_0":2
					},
					"indices":3,
					"material":0
				}
			]
		}
	],
	"textures":[
		{
			"sampler":0,
			"source":0
		},
		{
			"sampler":0,
			"source":1
		},
		{
			"sampler":0,
			"source":2
		}
	],
	"images":[
		{
			"mimeType":"image/png",
			"name":"T_vcckafl_2K_N",
			"uri":"T_vcckafl_2K_N.png"
		},
		{
			"mimeType":"image/png",
			"name":"T_vcckafl_2K_ORM",
			"uri":"T_vcckafl_2K_ORM.png"
		},
		{
			"mimeType":"image/png",
			"name":"T_vcckafl_2K_B",
			"uri":"T_vcckafl_2K_B.png"
		}
	],
	"accessors":[
		{
			"bufferView":0,
			"componentType":5126,
			"count":758,
			"max":[
				4.636798858642578,
				4.099129676818848,
				1.7745901346206665
			],
			"min":[
				-4.504501819610596,
				-4.033834457397461,
				-1.6572694778442383
			],
			"type":"VEC3"
		},
		{
			"bufferView":1,
			"componentType":5126,
			"count":758,
			"type":"VEC3"
		},
		{
			"bufferView":2,
			"componentType":5126,
			"count":758,
			"type":"VEC2"
		},
		{
			"bufferView":3,
			"componentType":5123,
			"count":3900,
			"type":"SCALAR"
		}
	],
	"bufferViews":[
		{
			"buffer":0,
			"byteLength":9096,
			"byteOffset":0,
			"target":34962
		},
		{
			"buffer":0,
			"byteLength":9096,
			"byteOffset":9096,
			"target":34962
		},
		{
			"buffer":0,
			"byteLength":6064,
			"byteOffset":18192,
			"target":34962
		},
		{
			"buffer":0,
			"byteLength":7800,
			"byteOffset":24256,
			"target":34963
		}
	],
	"samplers":[
		{
			"magFilter":9729,
			"minFilter":9987
		}
	],
	"buffers":[
		{
			"byteLength":32056,
			"uri":"2025_15_14_21_52_vcckafl_tier_2AS1ORG.bin"
		}
	]
}
